<?xml version="1.0" encoding="UTF-8"?><svg id="Layer_1" xmlns="http://www.w3.org/2000/svg" viewBox="0 0 2592 1728"><rect width="2592" height="1728" style="fill:#afafb0;"/><polygon points="1728 1728 2592 1728 2592 0 1728 1728" style="fill:#39439a;"/><polygon points="864 1728 1728 1728 1728 0 864 1728" style="fill:#39439a;"/><polygon points="0 1728 864 1728 864 0 0 1728" style="fill:#39439a;"/><path d="M1106.46,1180.06c4.1-.32,12.74-1.03,14.18-2.44l-18.65-10.52,4.25-7.48,29.36,16.56c-1.66,2.65-3.29,4.67-4.83,5.96-7.37,6.2-16.96,4.93-25.89,6.99-3.12.7-5.48,2.32-6.95,4.92-1.82,3.2-1.29,7.32,2.47,9.44,4.3,2.43,7.55,1.07,10.53-4.18l.21-.36,8.23,4.65c-5.52,9.71-13.94,12.14-22.72,7.19-8.29-4.68-11.8-13.43-7.03-21.81,1.68-2.95,5.16-8.09,16.82-8.92Z" style="fill:#39439a;"/><path d="M1053.76,1180.85l4.46-6.87,16.88,10.88,7.28-8.02c-3.98,0-5.45-.29-8.84-2.48-6.84-4.4-9.44-13.02-3.96-21.46,5.56-8.56,15.25-11.23,24.19-5.47,8.18,5.27,10.65,13.47,6.12,21.2l-8.18-5.27c1.82-3.7,1.57-7-2.12-9.37-3.97-2.56-8.35-.67-11.22,3.75-2.72,4.19-2.53,8.86,1.27,11.31,2.8,1.81,5.45,1.69,7.42.57l7.08,5.06-17.61,20.86-22.78-14.68Z" style="fill:#39439a;"/><path d="M1052.85,1145.89c1.46,1.28,1.46,3.49.31,4.79-1.15,1.3-3.46,1.4-4.77.26-1.36-1.19-1.45-3.4-.3-4.7,1.15-1.3,3.3-1.63,4.76-.35Z" style="fill:#39439a;"/><path d="M1008.7,1106.05l2.82,3.16c-3.04,4.63-3.03,9.45.71,13.65,5.04,5.65,12.88,4.74,19.49-1.11,6.61-5.85,8.44-13.3,3.31-19.06-4.02-4.51-9.1-5.2-14.58-1.84l-2.95-3.32c7.51-4.51,14.75-3.6,20.34,2.67,6.98,7.83,5.74,16.99-3.16,24.86-8.17,7.23-18.65,7.69-25.25.28-5.68-6.37-5.93-12.92-.72-19.29Z" style="fill:#39439a;"/><path d="M988.42,1091.98l.29.38c4.68,6.21,10.97,6,18.54.34l14.29-10.71,2.51,3.32-28.81,21.58-2.51-3.32,5.4-4.04-.08-.11c-5.58,1.49-9.31.47-13.16-4.62l-.08-.11,3.62-2.71Z" style="fill:#39439a;"/><path d="M982.33,1054.51l15.04,23.5c7.45-4.74,9.41-11.74,5.52-17.81-2.99-4.68-7.94-6.47-12.86-4.74l-2.5-3.92c8.37-2.27,14.23-.08,18.53,6.64,5.72,8.94,2.86,17.75-6.94,23.97-9.33,5.93-19.86,4.56-25.1-3.62-5.35-8.36-2.54-17.13,8.31-24.03ZM981.79,1060.11c-6.48,4.19-8.35,10.56-4.57,16.47,3.44,5.38,9.81,6.67,17.21,3.29l-12.64-19.75Z" style="fill:#39439a;"/><path d="M958.98,1028.67l18.03-9.02c1.74-.87,2.55-1.74,1.92-2.98-.28-.56-.72-1.27-1.65-2.04l2.92-1.46c.65.68,1.62,1.67,2.18,2.79,1.56,3.1.85,5.08-2.73,6.95,5.14,1.39,9.03,4.63,11.37,9.28,3.12,6.19,1.85,12.49-3.87,15.35-5.35,2.68-10.33,1.13-16.16-7.5l-2.18-3.25c-3.33-4.92-4.18-6.29-7.85-4.45-4.23,2.11-5.16,5.99-2.51,11.25,3.03,6.01,6.79,7.62,11.98,5.71l1.9,3.78c-7.03,2.89-13.28.05-17.28-7.88-3.93-7.8-2.13-13.51,3.9-16.52ZM987.54,1033.62c-3.37-6.69-9.47-9.84-15.07-7.04l-5.22,2.61c1.74,1.45,3.11,2.94,6.67,8.76,3.49,5.7,7.2,7.64,11.36,5.56,3.48-1.74,4.38-5.68,2.26-9.89Z" style="fill:#39439a;"/><path d="M936.41,1026.39l-1.59-3.85,9.27-3.8-2.56-6.22,3.22-1.32,2.57,6.22,23.75-9.73c3.74-1.53,3.16-3.09,2.34-5.08-.42-1.03-.96-1.78-1.67-2.76l3.15-1.29c.59.89,1.78,2.12,2.6,4.11,1.74,4.23.11,6.85-4,8.54l-24.59,10.07,1.93,4.69-3.22,1.32-1.93-4.68-9.27,3.8Z" style="fill:#39439a;"/><path d="M924.85,1007.79l5.82-2.11,1.57,4.3-5.82,2.11-1.57-4.3ZM939.56,1007.12l-1.43-3.91,33.88-12.27,1.42,3.91-33.88,12.26Z" style="fill:#39439a;"/><path d="M934.72,993.79l26.36-19.84-32.93-2.51-1.27-4.32,38.52,3.26,1.31,4.46-30.71,23.27-1.27-4.32Z" style="fill:#39439a;"/><path d="M938.55,928.01l5.22,27.37c8.68-1.65,13.1-7.42,11.75-14.51-1.04-5.45-4.96-8.94-10.17-9.15l-.87-4.56c8.61.98,13.24,5.18,14.73,13.01,1.99,10.42-3.95,17.54-15.36,19.7-10.87,2.06-20.14-3.09-21.96-12.62-1.86-9.73,4.01-16.85,16.65-19.25ZM935.96,933.01c-7.57,1.51-11.68,6.73-10.36,13.61,1.2,6.26,6.62,9.82,14.76,9.41l-4.39-23.01Z" style="fill:#39439a;"/><path d="M934.98,875.13l1.05,27.84c8.83-.34,14.07-5.39,13.8-12.59-.21-5.54-3.57-9.58-8.69-10.56l-.18-4.64c8.37,2.25,12.31,7.09,12.62,15.06.4,10.59-6.54,16.76-18.15,17.2-11.05.41-19.45-6.06-19.81-15.76-.38-9.9,6.49-16.06,19.36-16.55ZM931.67,879.69c-7.72.36-12.56,4.91-12.29,11.91.24,6.37,5.07,10.69,13.18,11.5l-.89-23.41Z" style="fill:#39439a;"/><path d="M916.42,865.6l14.91-9.04-13.69-11.03.32-5.26,16.58,13.98,19.43-12.31-.3,4.98-16.21,9.93,14.88,12.07-.31,5.05-17.78-14.88-18.13,11.62.31-5.12Z" style="fill:#39439a;"/><path d="M942.26,806.93l-4.4,27.52c8.73,1.38,14.85-2.56,15.99-9.68.88-5.48-1.63-10.09-6.46-12.05l.73-4.59c7.77,3.83,10.69,9.34,9.44,17.22-1.67,10.47-9.68,15.17-21.16,13.36-10.92-1.73-17.89-9.71-16.36-19.3,1.57-9.79,9.5-14.5,22.22-12.48ZM938.13,810.76c-7.64-1.14-13.27,2.39-14.38,9.3-1.01,6.3,2.89,11.48,10.68,13.83l3.7-23.14Z" style="fill:#39439a;"/><path d="M932.63,781.94l-.11.47c-1.85,7.54,2.3,12.26,11.49,14.49l17.37,4.21-.99,4.04-35.02-8.49.99-4.04,6.56,1.59.03-.14c-4.69-3.35-6.27-6.87-4.75-13.06l.03-.14,4.39,1.07Z" style="fill:#39439a;"/><path d="M950.36,751.82l-1.32,4.02c-5.55-.28-9.72,2.16-11.47,7.49-2.36,7.18,2.38,13.47,10.78,16.21,8.4,2.74,15.78.55,18.18-6.76,1.89-5.74-.08-10.46-5.75-13.47l1.39-4.22c7.7,4.19,10.56,10.88,7.93,18.86-3.27,9.95-11.83,13.5-23.14,9.82-10.38-3.38-16.06-12.17-12.97-21.59,2.66-8.1,8.21-11.62,16.36-10.35Z" style="fill:#39439a;"/><path d="M931.6,731.21l5.73,2.32-1.73,4.24-5.74-2.32,1.73-4.24ZM942.96,740.52l1.57-3.85,33.38,13.52-1.57,3.85-33.38-13.51Z" style="fill:#39439a;"/><path d="M968.38,709.66l-1.83,3.82c-4.79-1.59-8.52.25-11.05,5.5-2.28,4.75-1.25,8.39,2.07,9.98,3.45,1.64,6.36-.89,9.72-4.98,6.52-7.96,10.3-11,16.07-8.25,5.9,2.81,7.01,9.64,3.17,17.65-3.45,7.19-10.07,9.88-16.99,7.12l1.83-3.82c5.88,1.41,9.52-.23,12.31-6.05,2.37-4.94,1.4-9.17-2.24-10.9-2.45-1.17-4.81-1.22-10.9,6.64-6.03,7.73-9.99,8.92-14.76,6.65-5.77-2.75-6.7-9.34-3.64-15.72,3.64-7.56,9.07-10.05,16.24-7.64Z" style="fill:#39439a;"/><path d="M995.32,681.19l-14.5,23.83c7.56,4.56,14.72,3.21,18.47-2.95,2.89-4.74,2.31-9.95-1.42-13.58l2.42-3.97c5.74,6.47,6.36,12.68,2.21,19.49-5.52,9.07-14.71,10.41-24.65,4.41-9.46-5.71-12.88-15.73-7.83-24.03,5.16-8.48,14.29-9.85,25.3-3.21ZM990.03,683.19c-6.64-3.93-13.19-2.78-16.84,3.21-3.32,5.45-1.68,11.71,4.65,16.83l12.19-20.04Z" style="fill:#39439a;"/><path d="M1007.81,627.68c3.33,2.84,5.09,6.33,3.16,15.63l19.5.09c-1.08-3.11-3.3-5.54-6.05-7.88l2.67-3.11c4.31,3.94,6.73,7.73,7.69,11.1l12.59.04-3.66,4.27-7.66-.14c1.14,6.35-.2,11.32-4.71,16.59-5.83,6.8-14.87,7.96-21.53,2.28-4.92-4.19-6.28-10.81-4.02-19.1-5.62.15-9.4-.98-12-3.19-4.5-3.82-4.43-9.87-.14-14.88,3.98-4.64,10.1-5.17,14.18-1.7ZM1007.01,643.13c1.47-7.05.23-10.19-1.78-11.9-2.59-2.21-6.48-2.05-9.01.9-2.3,2.69-2.44,6.58.25,8.88,1.64,1.39,5,2.07,10.53,2.12ZM1028.65,661.64c3.07-3.58,4.18-8.29,3.19-13.97l-22.17-.18c-1.69,6.67-.35,12.46,3.46,15.71,4.82,4.09,11.18,3.5,15.52-1.56Z" style="fill:#39439a;"/><path d="M1050.12,574.81l3.2-2.66,32.1,38.29-3.2,2.66-4.06-4.84-.11.09c1.09,4.87-1.09,10.38-4.93,13.58-8.06,6.71-16.91,5.13-24.58-4.02-7.13-8.51-7.67-18.45.08-24.89,4-3.33,9.51-4.66,14.2-3.06l-12.7-15.16ZM1051.51,595.51c-5.5,4.57-5.88,12.02.5,19.63,6.82,8.14,13.9,7.93,19.08,3.63,5.61-4.66,5.42-12.45-.51-19.53-5.48-6.55-13.46-8.39-19.07-3.72Z" style="fill:#39439a;"/><path d="M1106.63,575.67l-23.3,15.44c4.89,7.33,11.96,9.15,17.98,5.15,4.64-3.07,6.34-8.03,4.51-12.9l3.88-2.57c2.44,8.29.35,14.17-6.32,18.59-8.87,5.87-17.76,3.19-24.2-6.44-6.13-9.18-4.96-19.7,3.16-25.07,8.29-5.49,17.14-2.87,24.27,7.81ZM1101,575.24c-4.34-6.37-10.76-8.1-16.61-4.22-5.33,3.53-6.52,9.89-2.97,17.2l19.59-12.98Z" style="fill:#39439a;"/><path d="M1103.39,555.84l24.85,21.67-4.22-32.63,3.99-2.12,4.62,38.23-4.12,2.19-29.11-25.22,3.99-2.12Z" style="fill:#39439a;"/><path d="M1168.8,546.19l-25.85,10.67c3.38,8.13,9.96,11.27,16.65,8.51,5.14-2.12,7.77-6.66,6.92-11.79l4.31-1.78c.79,8.6-2.4,13.97-9.8,17.03-9.84,4.06-18.04-.28-22.49-10.98-4.23-10.18-1.05-20.28,7.95-24,9.19-3.8,17.37.48,22.3,12.33ZM1163.35,544.69c-3.02-7.08-8.99-10.02-15.48-7.34-5.91,2.44-8.31,8.46-6.25,16.31l21.73-8.98Z" style="fill:#39439a;"/><path d="M1164.38,513.23l3.96-1.32,15.93,47.31-3.96,1.32-15.93-47.31Z" style="fill:#39439a;"/><path d="M1216.43,531.64c2.87,11-1.69,19.99-11.31,22.49-9.22,2.39-17.96-2.43-21-14.11-2.82-10.8,1.21-19.86,11.38-22.5,10.17-2.64,18.05,3.06,20.94,14.12ZM1204.11,550.52c7.67-1.99,10.24-9.24,8.05-17.63-2.38-9.12-7.77-13.81-15.78-11.73-7.27,1.88-10.28,8.82-7.95,17.74,2.38,9.12,8.34,13.52,15.68,11.62Z" style="fill:#39439a;"/><path d="M1255.17,525.59c1.62,10.97-3.14,19.66-13.05,21.12-5.16.76-10.46-.84-13.79-4.77l2.91,19.68-4.13.61-7.33-49.51,4.13-.61.92,6.24.14-.02c1.75-4.81,6.44-8.31,11.33-9.03,10.39-1.53,17.12,4.49,18.87,16.29ZM1240.81,543.11c7.64-1.12,11.3-7.76,9.94-16.95-1.56-10.56-7.71-14.07-14.46-13.08-7.16,1.05-11.08,7.79-9.74,16.92,1.27,8.57,7.16,14.15,14.25,13.11Z" style="fill:#39439a;"/><path d="M1299.13,505.34c7.51-.08,11.24,3.76,11.34,13.68l.24,23.08-4.17.05-.26-24.88c-.06-5.47-2.38-8.22-7.6-8.17-5.7.06-10.68,3.51-10.57,14.04l.2,19.2-4.17.05-.26-25.09c-.06-5.41-2.38-8.02-7.74-7.96-5.22.06-10.54,3.44-10.44,13.56l.2,19.68-4.17.05-.37-35.9,4.17-.05.06,5.41h.14c2.18-4.11,6.33-6.44,11.13-6.5,5.08-.05,8.64,1.78,10.57,6.82,2.39-4.67,6.47-7,11.69-7.06Z" style="fill:#39439a;"/><path d="M1348.29,529.85l-27.77-3.36c-1.07,8.74,3.11,14.69,10.29,15.56,5.53.67,10.06-2,11.85-6.88l4.63.56c-3.56,7.88-8.98,10.99-16.93,10.03-10.57-1.27-15.57-9.07-14.17-20.57,1.34-10.94,9.09-18.17,18.76-17,9.88,1.19,14.89,8.92,13.33,21.65ZM1344.29,525.88c.87-7.65-2.88-13.13-9.86-13.97-6.36-.77-11.41,3.3-13.49,11.15l23.34,2.82Z" style="fill:#39439a;"/><path d="M1378.2,553.86l-4.07-.93,5.29-23.04c1.35-5.88-.38-9.83-6.89-11.31-5.97-1.36-11.73,1.95-13.54,9.86l-4.59,20-4.07-.93,8.04-35,4.07.93-1.12,4.86c5.08-3.46,8.66-4.14,12.66-3.23,6.92,1.57,11.61,6.63,9.83,14.39l-5.6,24.4Z" style="fill:#39439a;"/><path d="M1399.32,512.46l3.99,1.23-2.96,9.54,6.45,1.98-1.03,3.31-6.45-1.99-7.6,24.43c-1.19,3.84.38,4.4,2.44,5.04,1.06.32,1.99.39,3.2.48l-1.01,3.24c-1.06-.11-2.77.02-4.83-.62-4.39-1.35-5.37-4.27-4.06-8.51l7.86-25.29-4.85-1.5,1.03-3.31,4.85,1.49,2.96-9.53Z" style="fill:#39439a;"/><path d="M1426.84,548.8c-1.8-.75-2.51-2.84-1.84-4.44.67-1.6,2.83-2.43,4.43-1.77,1.67.69,2.47,2.75,1.8,4.35-.67,1.6-2.6,2.6-4.39,1.86Z" style="fill:#39439a;"/><path d="M1641.62,717.17l1.58,3.85-18.35,7.49c5.08.84,9.17,4.57,11.15,9.38,3.83,9.3-1.34,17.77-11.58,21.95-11.07,4.52-19.7,1.83-23.68-7.86-1.87-4.55-1.25-10.35,2.01-14.3l-.05-.13-5.86,2.39-1.58-3.85,46.36-18.93ZM1604.04,750.12c2.82,6.86,9.59,9.42,18.54,5.76,8.95-3.65,12.56-10.22,9.64-17.34-2.64-6.41-10.57-8.71-18.56-5.46-8.56,3.5-12.41,10.24-9.61,17.03Z" style="fill:#afafb0;"/><path d="M1634.12,795.76l-7.76-26.77c-8.49,2.44-12.36,8.6-10.35,15.53,1.54,5.33,5.78,8.44,10.98,8.17l1.29,4.46c-8.67-.17-13.67-3.93-15.89-11.59-2.95-10.19,2.29-17.83,13.46-21.05,10.63-3.06,20.34,1.22,23.04,10.54,2.76,9.52-2.42,17.14-14.79,20.71ZM1636.22,790.54c7.4-2.2,11-7.79,9.05-14.51-1.78-6.13-7.51-9.17-15.57-8l6.52,22.51Z" style="fill:#afafb0;"/><path d="M1649.21,827.14l-19.86,3.58c-1.92.35-2.94.95-2.69,2.32.11.61.33,1.42,1,2.43l-3.22.58c-.44-.84-1.08-2.06-1.3-3.28-.62-3.41.63-5.12,4.59-5.9-4.53-2.77-7.35-6.99-8.27-12.1-1.24-6.82,1.77-12.5,8.06-13.64,5.89-1.06,10.23,1.82,13.37,11.75l1.17,3.73c1.8,5.66,2.22,7.21,6.26,6.48,4.66-.84,6.65-4.3,5.6-10.09-1.2-6.62-4.36-9.22-9.88-8.86l-.75-4.16c7.56-.8,12.76,3.69,14.34,12.42,1.56,8.59-1.79,13.56-8.43,14.76ZM1623.21,814.36c1.34,7.37,6.3,12.11,12.46,10.99l5.75-1.03c-1.26-1.89-2.15-3.7-3.91-10.28-1.73-6.45-4.74-9.36-9.32-8.53-3.83.69-5.81,4.22-4.97,8.86Z" style="fill:#afafb0;"/><path d="M1660.4,835.89l.32,4.15-23.86,1.81c-5.76.44-9.1,3.33-8.6,9.9.51,6.63,6.18,10.51,14.57,9.87l19.43-1.48.32,4.15-35.94,2.73-.32-4.15,4.99-.38c-4.73-3.46-6.5-6.53-6.85-11.16-.63-8.29,3.54-12.99,12.14-13.65l23.8-1.81Z" style="fill:#afafb0;"/><path d="M1672.59,874.85v4.16s-10.02,0-10.02,0v6.73s-3.48,0-3.48,0v-6.73s-25.68.02-25.68.02c-4.04,0-4.1,1.67-4.1,3.82,0,1.1.21,2.01.49,3.19h-3.41c-.21-1.04-.84-2.63-.84-4.78,0-4.58,2.5-6.38,6.95-6.38l26.58-.03v-5.06s3.48,0,3.48,0v5.06s10.02,0,10.02,0Z" style="fill:#afafb0;"/><path d="M1662.34,891.55l-.17,4.15-36.01-1.48.17-4.15,36.01,1.48ZM1676.2,896.48l-6.19-.26.19-4.57,6.19.25-.19,4.57Z" style="fill:#afafb0;"/><path d="M1675.29,918.46l-3.81-.32c.35-.88.49-1.7.55-2.46.25-2.97-1.22-4.55-5.73-4.93l-5.13-.43-.58,6.91-3.47-.29.58-6.91-32.45-2.69.35-4.14,32.45,2.69.45-5.32,3.47.29-.45,5.31,5.96.5c5.76.48,8.82,3.1,8.37,8.41-.1,1.18-.26,2.2-.56,3.36Z" style="fill:#afafb0;"/><path d="M1660.14,922.82l-.66,4.1-23.63-3.78c-5.7-.91-9.62,1.13-10.67,7.63-1.06,6.57,3.54,11.65,11.86,12.98l19.23,3.07-.66,4.11-35.58-5.69.66-4.1,4.94.79c-3.79-4.47-4.79-7.86-4.05-12.44,1.32-8.21,6.49-11.81,15-10.45l23.56,3.77Z" style="fill:#afafb0;"/><path d="M1667.02,963.4l-.95,4.05-48.79-11.32.95-4.05,48.79,11.33Z" style="fill:#afafb0;"/><path d="M1645.32,990.55l-1.42,3.91-22.51-8.1c-5.43-1.96-9.67-.68-11.92,5.51-2.27,6.26,1.3,12.11,9.22,14.97l18.32,6.6-1.42,3.91-33.9-12.2,1.42-3.91,4.71,1.7c-2.89-5.1-3.24-8.61-1.65-12.98,2.84-7.82,8.58-10.4,16.7-7.48l22.45,8.08Z" style="fill:#afafb0;"/><path d="M1586.98,1036.38l1.8-3.75,21.4,10.2c5.46,2.6,9.71,1.78,12.59-4.22,2.64-5.5.67-11.82-6.68-15.32l-18.58-8.85,1.8-3.75,32.51,15.48-1.8,3.75-4.52-2.16c2.28,5.7,2.15,9.32.38,13.01-3.06,6.38-9.04,9.83-16.26,6.39l-22.66-10.79Z" style="fill:#afafb0;"/><path d="M1614.57,1060.25l-2.06,3.62-31.32-17.74,2.06-3.62,31.32,17.74ZM1624.62,1070.96l-5.38-3.05,2.27-3.98,5.38,3.05-2.27,3.98Z" style="fill:#afafb0;"/><path d="M1615.72,1078.05l-2.21,3.53-8.5-5.29-3.58,5.7-2.95-1.83,3.58-5.7-21.77-13.56c-3.42-2.13-4.36-.76-5.51,1.06-.59.94-.89,1.82-1.29,2.96l-2.89-1.8c.38-.99.7-2.67,1.84-4.5,2.44-3.88,5.52-4.09,9.29-1.73l22.54,14.03,2.69-4.29,2.95,1.83-2.69,4.29,8.5,5.29Z" style="fill:#afafb0;"/><path d="M1597.77,1087.62l-31.84-8.82,18.26,27.44-2.66,3.64-23.03-34.93c-1.33-2.07-3.68-5.92-4.24-8.81-.45-2.21.09-4.13,1.15-5.59.82-1.12,1.89-2.23,2.81-3.03l3.15,2.28c-1.04.96-1.73,1.66-2.38,2.56-1.47,2.02-.98,4.17,1.44,7.81l2.48,3.68,37.6,10-2.74,3.76Z" style="fill:#afafb0;"/><path d="M1542.1,1143.21l4.5,4.43-2.94,2.96-23.45-23.09c-8.36-8.23-8.8-16.37-.78-24.45,6.06-6.11,13.34-7.33,18.09-3.54l-3.13,3.16c-3.65-2.33-7.59-1.72-12.28,3.02-6.02,6.06-5.68,12.23,1.84,19.64l1.14,1.12c-1.11-4.89.53-10.1,4.25-13.85,7.14-7.2,16.89-5.88,24.86,1.96,8.66,8.52,9.3,17.44,2.01,24.79-3.52,3.55-9.22,5.25-14,3.76l-.1.1ZM1533.69,1134.92c6.53,6.43,14.26,7.42,19.54,2.09,4.99-5.03,5.1-12.13-2.08-19.2-6.98-6.87-14.31-7.46-19.64-2.09-5.04,5.08-3.91,13.21,2.18,19.2Z" style="fill:#afafb0;"/><path d="M1535.26,1157.94l-28.57-16.52,10.72,31.13-3.49,2.86-13.45-39.57c-.76-2.34-2.06-6.65-1.87-9.59.12-2.25,1.13-3.98,2.53-5.12,1.07-.88,2.39-1.69,3.48-2.23l2.47,3c-1.25.67-2.09,1.18-2.95,1.88-1.94,1.58-2,3.79-.58,7.92l1.47,4.18,33.85,19.11-3.6,2.95Z" style="fill:#afafb0;"/><path d="M1477.92,1200.21c-6.36,3.99-11.56,2.66-16.86-5.72l-12.35-19.53,3.53-2.22,13.32,21.05c2.93,4.63,6.35,5.76,10.77,2.99,4.83-3.03,7.25-8.57,1.61-17.48l-10.27-16.24,3.53-2.22,13.42,21.23c2.89,4.58,6.25,5.58,10.78,2.74,4.42-2.77,7.17-8.43,1.75-16.99l-10.53-16.66,3.53-2.21,19.21,30.38-3.53,2.22-2.89-4.58-.12.08c.3,4.64-2,8.79-6.07,11.35-4.3,2.7-8.3,3-12.6-.29.43,5.22-1.82,9.34-6.24,12.11Z" style="fill:#afafb0;"/><path d="M1417.83,1188.81l3.79-1.74,9.93,21.46c2.53,5.48,6.33,7.55,12.39,4.76,5.56-2.55,8.09-8.68,4.68-16.04l-8.62-18.63,3.79-1.74,15.09,32.6-3.79,1.74-2.1-4.53c-1.9,5.84-4.32,8.55-8.05,10.26-6.45,2.96-13.26,1.82-16.61-5.42l-10.52-22.72Z" style="fill:#afafb0;"/><path d="M1394.28,1224.66l-6.53-19.02c-.63-1.83-1.39-2.75-2.71-2.3-.59.2-1.36.54-2.26,1.36l-1.06-3.08c.76-.55,1.88-1.37,3.06-1.78,3.29-1.12,5.17-.15,6.54,3.63,2.07-4.88,5.83-8.29,10.77-9.97,6.58-2.25,12.67-.15,14.74,5.89,1.94,5.64-.27,10.35-9.65,14.94l-3.53,1.72c-5.35,2.63-6.82,3.28-5.49,7.15,1.53,4.46,5.26,5.9,10.86,3.99,6.39-2.18,8.49-5.68,7.31-11.07l4.02-1.37c1.93,7.33-1.74,13.13-10.17,16-8.29,2.83-13.73.29-15.91-6.08ZM1403.06,1197.12c-7.11,2.43-11.07,8.03-9.04,13.93l1.89,5.51c1.68-1.53,3.34-2.68,9.62-5.4,6.14-2.68,8.58-6.08,7.07-10.47-1.26-3.67-5.06-5.09-9.53-3.56Z" style="fill:#afafb0;"/><path d="M1360.18,1232.71l4.13-.97c1.77,4.71,5.54,6.45,11.23,5.1,5.14-1.22,7.34-4.3,6.49-7.87-.88-3.71-4.69-4.38-9.99-4.4-10.31-.05-15.06-1.07-16.53-7.27-1.51-6.34,3.12-11.49,11.79-13.55,7.78-1.84,14.04,1.59,16.23,8.7l-4.13.98c-2.58-5.44-6.16-7.23-12.45-5.74-5.35,1.27-8.04,4.68-7.1,8.59.63,2.63,2.07,4.5,12.03,4.28,9.82-.19,13.24,2.14,14.46,7.26,1.48,6.2-3.09,11.06-9.99,12.69-8.19,1.94-13.54-.71-16.15-7.79Z" style="fill:#afafb0;"/><path d="M1354.04,1244.15l-4.11.7-6.07-35.39,4.11-.7,6.07,35.39ZM1352.09,1258.69l-1.04-6.08,4.53-.77,1.04,6.09-4.53.77Z" style="fill:#afafb0;"/><path d="M1340.53,1246.55l-4.15.41-2.38-23.73c-.58-5.72-3.56-8.98-10.14-8.32-6.65.66-10.41,6.4-9.57,14.75l1.94,19.32-4.16.41-3.59-35.73,4.15-.42.5,4.97c3.36-4.8,6.4-6.63,11.03-7.1,8.31-.83,13.12,3.21,13.98,11.77l2.38,23.66Z" style="fill:#afafb0;"/><path d="M1264.38,1250.22c-7.51-.23-11.08-4.22-10.77-14.13l.72-23.08,4.17.13-.77,24.88c-.17,5.47,2.04,8.32,7.25,8.48,5.7.17,10.82-3.07,11.15-13.6l.6-19.19,4.17.13-.78,25.08c-.17,5.41,2.04,8.11,7.4,8.27,5.22.16,10.68-3,10.99-13.12l.62-19.68,4.17.13-1.12,35.89-4.17-.12.17-5.41h-.14c-2.35,4.01-6.6,6.17-11.4,6.03-5.08-.16-8.57-2.14-10.29-7.25-2.58,4.57-6.75,6.73-11.97,6.57Z" style="fill:#afafb0;"/><path d="M1224.71,1228.94c1.92.35,3.05,2.25,2.73,3.96-.31,1.7-2.25,2.97-3.96,2.66-1.78-.33-3-2.17-2.68-3.88.31-1.7,1.99-3.09,3.9-2.74Z" style="fill:#afafb0;"/><path d="M1178.41,1214.31c3.94-1.16,12.24-3.64,13.36-5.32l-20.44-6.42,2.6-8.2,32.18,10.11c-1.07,2.93-2.25,5.25-3.48,6.83-5.91,7.59-15.56,8.34-23.86,12.2-2.91,1.34-4.87,3.41-5.77,6.25-1.11,3.5.27,7.43,4.39,8.72,4.71,1.48,7.61-.52,9.43-6.27l.12-.39,9.03,2.83c-3.37,10.65-11.1,14.76-20.72,11.73-9.09-2.85-14.34-10.68-11.43-19.87,1.03-3.24,3.36-8.98,14.6-12.21Z" style="fill:#afafb0;"/><path d="M1159.32,1186.43c10.62,4.7,12.36,14.27,5.33,30.04-7.04,15.77-15.31,20.83-25.93,16.14-10.62-4.7-12.39-14.21-5.35-29.98,7.04-15.77,15.34-20.9,25.96-16.2ZM1142.55,1206.62c-5.82,13.05-5.18,16.9-.6,18.92,4.45,1.97,7.78-.2,13.54-13.13,5.76-12.92,5.18-16.9.67-18.89-4.45-1.97-7.78.04-13.61,13.09Z" style="fill:#afafb0;"/><path d="M1489.02,547.18c8.59,4.27,10.9,11.77,7.7,18.16-1.9,3.78-4.73,6.48-10.01,6.33,3.49,3.59,4.39,8.46,1.5,14.23-1.65,3.29-4.42,5.86-8.37,7.23-3.67,1.27-7.53,1.37-15.43-2.56l-19.74-9.81,22.31-44.54,22.04,10.95ZM1469.01,583.25c4.23,2.1,8,1.73,10.36-2.99,1.65-3.29.21-6.63-4.08-8.77l-11.83-5.88-5.97,11.91,11.52,5.73ZM1478.3,563.61c3.3,1.64,7.03,2.1,8.96-1.74,2.02-4.03-.72-6.33-4.39-8.15l-10.77-5.35-4.88,9.74,11.08,5.51Z" style="fill:#afafb0;"/><path d="M1494.53,598.89l-5.87,8.27-8.52-6,5.86-8.26,8.53,6Z" style="fill:#afafb0;"/><path d="M1531.61,577.15l-21.05,24.93c-3.81,4.51-3.66,9.62.6,13.18,5.59,4.68,10.04,3.61,13.76-.79l21.23-25.14,8.14,6.82-21.14,25.04c-7.53,8.91-17.14,9.64-27.57.9-9.21-7.72-11.22-17.29-3.29-26.67l21.19-25.09,8.14,6.82Z" style="fill:#afafb0;"/><path d="M1536.84,635.23l-7.12,7.22-7.44-7.29,7.13-7.22,7.44,7.29Z" style="fill:#afafb0;"/><path d="M1587.1,655.44l-6.75-7.93c2.55-2.79,3.02-9.09-.81-13.58-5.58-6.55-14.15-6.76-22.96.69-8.54,7.22-9.73,15.04-3.74,22.07,3.56,4.17,9.7,5.71,16.26,2.16l-7.52-8.83,6.42-5.42,13.5,15.85-20.53,17.36-4.5-5.28,4.1-4.83c-7.51.17-12.04-2.45-15.82-6.89-8.51-9.99-7.42-23.81,4.99-34.31,11.72-9.91,25.88-10.43,36.05,1.51,7.92,9.3,8.15,20.38,1.3,27.44Z" style="fill:#afafb0;"/><path d="M1576.12,682.79l-8.31,5.83-6.01-8.49,8.31-5.84,6.01,8.5Z" style="fill:#afafb0;"/><path d="M1598.69,698.37c-.98-1.68-.27-3.77,1.23-4.64,1.5-.87,3.73-.24,4.6,1.26.91,1.56.3,3.68-1.21,4.55s-3.65.51-4.63-1.16Z" style="fill:#afafb0;"/><polygon points="1108.75 888.94 1077.68 911.24 1089.55 875.15 1058.48 852.85 1096.88 852.85 1108.75 816.76 1120.62 852.85 1159.02 852.85 1127.95 875.15 1139.82 911.24 1108.75 888.94" style="fill:#39439a;"/><polygon points="1233.58 888.94 1202.52 911.24 1214.38 875.15 1183.31 852.85 1221.72 852.85 1233.58 816.76 1245.45 852.85 1283.85 852.85 1252.79 875.15 1264.65 911.24 1233.58 888.94" style="fill:#39439a;"/><polygon points="1358.42 888.94 1327.35 911.24 1339.21 875.15 1308.15 852.85 1346.55 852.85 1358.42 816.76 1370.28 852.85 1408.69 852.85 1377.62 875.15 1389.48 911.24 1358.42 888.94" style="fill:#afafb0;"/><polygon points="1483.25 888.94 1452.18 911.24 1464.05 875.15 1432.98 852.85 1471.38 852.85 1483.25 816.76 1495.12 852.85 1533.52 852.85 1502.45 875.15 1514.32 911.24 1483.25 888.94" style="fill:#afafb0;"/></svg>